<svg width="16" height="16" viewBox="0 0 16 16" fill="none" xmlns="http://www.w3.org/2000/svg">
<g id="Icons/Bell">
<path id="Shape" fill-rule="evenodd" clip-rule="evenodd" d="M8.00004 1.33334C7.37361 1.33334 6.86671 1.79208 6.86671 2.35898C6.86671 2.39076 6.87246 2.4215 6.87816 2.45194L6.87816 2.45194C6.88037 2.46372 6.88256 2.47546 6.88442 2.48719C4.92543 2.93991 3.46671 4.55049 3.46671 6.46155V11.0769C3.46671 11.3674 3.221 11.5898 2.90004 11.5898H2.33337V12.6154H6.40629C6.3421 12.7777 6.30004 12.9479 6.30004 13.1282C6.30004 13.9716 7.06814 14.6667 8.00004 14.6667C8.93194 14.6667 9.70004 13.9716 9.70004 13.1282C9.70004 12.9479 9.65798 12.7777 9.59379 12.6154H13.6667V11.5898H13.1C12.7791 11.5898 12.5334 11.3674 12.5334 11.0769V6.60578C12.5334 4.6787 11.1101 2.95995 9.11567 2.48719C9.11752 2.47546 9.11971 2.46372 9.12192 2.45194C9.12762 2.4215 9.13337 2.39076 9.13337 2.35898C9.13337 1.79208 8.62647 1.33334 8.00004 1.33334ZM7.75212 3.38463C7.80656 3.38063 7.861 3.38195 7.91609 3.38328H7.9161C7.94389 3.38395 7.97184 3.38463 8.00004 3.38463H8.10629C9.95681 3.43471 11.4 4.90306 11.4 6.60578V11.0769C11.4 11.2572 11.4421 11.4275 11.5063 11.5898H4.49379C4.55798 11.4275 4.60004 11.2572 4.60004 11.0769V6.46155C4.60004 4.83294 5.98572 3.50081 7.75212 3.38463ZM8.56671 13.1282C8.56671 12.8398 8.31879 12.6154 8.00004 12.6154C7.68129 12.6154 7.43338 12.8398 7.43338 13.1282C7.43338 13.4167 7.68129 13.641 8.00004 13.641C8.31879 13.641 8.56671 13.4167 8.56671 13.1282Z" fill="black"/>
</g>
</svg>
