<svg width="17" height="16" viewBox="0 0 17 16" fill="none" xmlns="http://www.w3.org/2000/svg">
<g id="Icons/Calendar" clip-path="url(#clip0_74_4436)">
<g id="Vector ">
<path d="M4.28343 4.1209C4.28892 4.11888 4.29505 4.11758 4.30301 4.11758H13.0303C13.0382 4.11758 13.0444 4.11888 13.0499 4.1209C13.0558 4.12311 13.0626 4.12679 13.0693 4.13239L13.7244 3.34182C13.5354 3.18527 13.2933 3.09091 13.0303 3.09091H12.4848H11.3939H5.93937H4.84846H4.30301C4.03995 3.09091 3.79786 3.18527 3.60892 3.34182C3.55585 3.38579 3.50698 3.43467 3.46301 3.48774C3.30646 3.67668 3.2121 3.91876 3.2121 4.18182V12.9091C3.2121 13.1721 3.30646 13.4142 3.46301 13.6032C3.50698 13.6562 3.55585 13.7051 3.60892 13.7491L4.26394 12.9585C4.26018 12.9554 4.25668 12.9519 4.25357 12.9482C4.24797 12.9414 4.24429 12.9347 4.24209 12.9287C4.24006 12.9232 4.23876 12.917 4.23876 12.9091V4.18182C4.23876 4.17387 4.24006 4.16774 4.24209 4.16224C4.24429 4.15626 4.24797 4.14951 4.25357 4.14276C4.25669 4.139 4.26018 4.1355 4.26394 4.13238C4.2707 4.12679 4.27745 4.12311 4.28343 4.1209Z" fill="#87858E"/>
<path d="M4.26394 12.9585L3.60892 13.7491C3.79786 13.9056 4.03995 14 4.30301 14H13.0303C13.2933 14 13.5354 13.9056 13.7244 13.7491C13.7774 13.7051 13.8263 13.6562 13.8703 13.6032C14.0268 13.4142 14.1212 13.1721 14.1212 12.9091V4.18182C14.1212 3.91876 14.0268 3.67668 13.8703 3.48774L13.0797 4.14276C13.0853 4.14951 13.089 4.15626 13.0912 4.16224C13.0932 4.16774 13.0945 4.17387 13.0945 4.18182V12.9091C13.0945 12.917 13.0932 12.9232 13.0912 12.9287C13.089 12.9347 13.0853 12.9414 13.0797 12.9482C13.0766 12.9519 13.0731 12.9554 13.0693 12.9585C13.0626 12.9641 13.0558 12.9678 13.0499 12.97C13.0444 12.972 13.0382 12.9733 13.0303 12.9733H4.30301C4.29505 12.9733 4.28892 12.972 4.28343 12.97C4.27745 12.9678 4.2707 12.9641 4.26394 12.9585Z" fill="#87858E"/>
<path d="M13.7244 3.34182L13.0693 4.13239C13.0731 4.1355 13.0766 4.139 13.0797 4.14276L13.8703 3.48774C13.8263 3.43467 13.7774 3.38579 13.7244 3.34182Z" fill="#87858E"/>
</g>
<rect id="Rectangle 2" x="10.6667" y="1.97917" width="1.02667" height="3.33333" rx="0.513333" fill="#87858E"/>
<rect id="Rectangle 3" x="5.64001" y="1.97917" width="1.02667" height="3.33333" rx="0.513333" fill="#87858E"/>
</g>
<defs>
<clipPath id="clip0_74_4436">
<rect width="16" height="16" fill="white" transform="translate(0.666687)"/>
</clipPath>
</defs>
</svg>
