<svg width="17" height="16" viewBox="0 0 17 16" fill="none" xmlns="http://www.w3.org/2000/svg">
<g id="Icons/Card_view">
<path id="Rectangle 5 (Stroke)" fill-rule="evenodd" clip-rule="evenodd" d="M11.0267 3.02667H5.69332C5.52395 3.02667 5.38665 3.16397 5.38665 3.33333V12.6667C5.38665 12.836 5.52395 12.9733 5.69332 12.9733H11.0267C11.196 12.9733 11.3333 12.836 11.3333 12.6667V3.33333C11.3333 3.16397 11.196 3.02667 11.0267 3.02667ZM5.69332 2C4.95694 2 4.35999 2.59695 4.35999 3.33333V12.6667C4.35999 13.403 4.95694 14 5.69332 14H11.0267C11.763 14 12.36 13.403 12.36 12.6667V3.33333C12.36 2.59695 11.763 2 11.0267 2H5.69332Z" fill="#FFAD54"/>
</g>
</svg>
