<svg width="17" height="16" viewBox="0 0 17 16" fill="none" xmlns="http://www.w3.org/2000/svg">
<g id="Icons/Compass">
<path id="Shape" fill-rule="evenodd" clip-rule="evenodd" d="M2 8C2 4.32378 4.99045 1.33333 8.66667 1.33333C12.3429 1.33333 15.3333 4.32378 15.3333 8C15.3333 11.6762 12.3429 14.6667 8.66667 14.6667C4.99045 14.6667 2 11.6762 2 8ZM8.11111 2.47916H8.09375C5.47005 2.74392 3.40408 4.8164 3.14583 7.44444H3.66667V8.55555H3.14583C3.40408 11.1879 5.47873 13.2626 8.11111 13.5208V13H9.22222V13.5208C11.8546 13.2626 13.9293 11.1879 14.1875 8.55555H13.6667V7.44444H14.1875C13.9293 4.81206 11.8546 2.73741 9.22222 2.47916V2.99999H8.11111V2.47916ZM12.2778 4.38889L7.64235 6.97569L5.05554 11.6111L9.69096 9.0243L12.2778 4.38889ZM9.5 7.99999C9.5 7.53993 9.12674 7.16666 8.66667 7.16666C8.2066 7.16666 7.83333 7.53993 7.83333 7.99999C7.83333 8.46006 8.2066 8.83333 8.66667 8.83333C9.12674 8.83333 9.5 8.46006 9.5 7.99999Z" fill="#87858E"/>
</g>
</svg>
