<svg width="20" height="20" viewBox="0 0 20 20" fill="none" xmlns="http://www.w3.org/2000/svg">
<g id="Icons/Flag">
<path id="Union" fill-rule="evenodd" clip-rule="evenodd" d="M10.2061 11.4012L9.53167 9.94602H4.25843V17.6917C4.25843 18.0461 3.97115 18.3333 3.61676 18.3333C3.26238 18.3333 2.9751 18.0461 2.9751 17.6917V9.94602V2.67023V2.30834C2.9751 1.95396 3.26238 1.66667 3.61676 1.66667C3.66354 1.66667 3.70914 1.67168 3.75307 1.68118C3.80468 1.67164 3.8577 1.66667 3.91175 1.66667H9.8876C10.2435 1.66667 10.5714 1.87742 10.7306 2.21863L11.405 3.67379H16.0882C16.6034 3.67379 17.0249 4.12539 17.0249 4.67734V10.9496C17.0249 11.5015 16.6034 11.9531 16.0882 11.9531H11.0397C10.6931 11.9531 10.3653 11.7424 10.2061 11.4012ZM4.25843 2.95001V8.66268H10.3514L11.2816 10.6698H15.7416V4.95712H10.5853L9.65509 2.95001H4.25843Z" fill="#52CEDE"/>
</g>
</svg>
