<svg width="13" height="12" viewBox="0 0 13 12" fill="none" xmlns="http://www.w3.org/2000/svg">
<g id="Icons/flame_white">
<path id="Shape" fill-rule="evenodd" clip-rule="evenodd" d="M5.85 1L5.775 1.30048C5.68502 1.68813 5.22974 2.26316 4.67386 2.96526L4.67386 2.96526L4.67385 2.96526C4.48646 3.20195 4.28762 3.45309 4.0875 3.71635C3.29375 4.76052 2.5 6.0616 2.5 7.69471C2.5 8.46544 2.74531 9.28876 3.35 9.93029C3.95469 10.5718 4.91875 11 6.225 11C6.25616 11 6.2846 10.9969 6.313 10.9939H6.31301C6.3373 10.9913 6.36157 10.9887 6.3875 10.988C6.40464 10.9887 6.42145 10.9912 6.43838 10.9938C6.4585 10.9969 6.47879 11 6.5 11C6.60069 11 6.69605 10.9908 6.79048 10.9816L6.85 10.976C6.86719 10.9745 6.88359 10.9722 6.9 10.97C6.91641 10.9677 6.93281 10.9654 6.95 10.9639C8.28906 10.8573 9.17812 10.4606 9.725 9.87019C10.3672 9.17758 10.5 8.29868 10.5 7.53846C10.5 5.82121 9.47188 4.22416 8.475 3.04327C7.47813 1.86238 6.475 1.08413 6.475 1.08413L6.3625 1H5.85ZM6.30001 1.96154C6.62345 2.23497 7.16876 2.72927 7.85001 3.53606C8.79064 4.65084 9.70001 6.1277 9.70001 7.53846C9.70001 8.21304 9.57658 8.86659 9.12501 9.35336C9.02814 9.45853 8.91095 9.5607 8.77501 9.65384C8.99064 9.05439 8.94376 8.37229 8.80001 7.69471C8.63595 6.92097 8.32501 6.14423 8.02501 5.51923C7.72501 4.89423 7.46876 4.45252 7.25001 4.20913L7.13751 4.07692H6.36251L6.51251 4.56971C6.93126 5.8783 6.71095 6.76923 6.47501 7.03365C6.35782 7.16586 6.30626 7.17788 6.18751 7.14183C6.06876 7.10577 5.8547 6.95703 5.65001 6.58894L5.35001 6.04808L4.97501 6.54086C4.22657 7.50991 3.93907 8.57211 4.18751 9.46154C4.2067 9.53007 4.23551 9.59744 4.26339 9.66265L4.27501 9.6899C4.15626 9.60276 4.04532 9.51412 3.95001 9.41346C3.50314 8.9402 3.30001 8.30769 3.30001 7.69471C3.30001 6.30198 3.98126 5.16767 4.73751 4.17308C4.87857 3.98752 5.01882 3.80859 5.15538 3.63436C5.61481 3.04819 6.03262 2.51513 6.30001 1.96154ZM7.58824 6.6217C7.56708 6.57065 7.54594 6.51967 7.52501 6.46875C7.46251 6.90445 7.32344 7.27254 7.08751 7.53846C6.81251 7.84796 6.35782 7.9982 5.95001 7.875C5.72969 7.80889 5.54063 7.67969 5.36251 7.5024C5.00157 8.15745 4.83282 8.80499 4.96251 9.26923C5.11876 9.83263 5.53438 10.2037 6.40001 10.2308C6.42263 10.2318 6.44323 10.2314 6.46491 10.2311C6.47617 10.2309 6.48772 10.2308 6.50001 10.2308C6.63751 10.2263 6.77501 10.2172 6.90001 10.2067C6.91485 10.2049 6.92989 10.2031 6.94493 10.2013C6.99005 10.1959 7.03516 10.1906 7.07501 10.1827C7.55938 10.091 7.79688 9.87019 7.95001 9.56971C8.15469 9.16857 8.15782 8.53906 8.01251 7.85096C7.92377 7.43099 7.75505 7.02404 7.58824 6.6217Z" fill="#87858E"/>
</g>
</svg>
