<svg width="17" height="16" viewBox="0 0 17 16" fill="none" xmlns="http://www.w3.org/2000/svg">
<g id="Icons/hub_inactive">
<path id="Combined Shape" fill-rule="evenodd" clip-rule="evenodd" d="M14.5032 6.90837C14.3395 6.93575 14.1714 6.95 14 6.95C13.8206 6.95 13.6449 6.93439 13.474 6.90446C13.4824 7.02077 13.4867 7.13822 13.4867 7.25667C13.4867 8.91348 12.6508 10.375 11.3777 11.2426C11.5346 11.5578 11.6382 11.9042 11.6767 12.2701C13.3764 11.2474 14.5134 9.38481 14.5134 7.25667C14.5134 7.13974 14.5099 7.02361 14.5032 6.90837ZM3.8467 7.25667C3.8467 8.91348 4.68264 10.375 5.95575 11.2426C5.79879 11.5578 5.69518 11.9042 5.65675 12.27C3.95705 11.2474 2.82004 9.38481 2.82004 7.25667C2.82004 7.13974 2.82347 7.02361 2.83024 6.90838C2.99387 6.93575 3.16196 6.95 3.33337 6.95C3.51278 6.95 3.68854 6.93439 3.85937 6.90446C3.85097 7.02077 3.8467 7.13822 3.8467 7.25667ZM11.538 2.16246C10.6899 1.68339 9.71024 1.41 8.6667 1.41C7.62316 1.41 6.64348 1.6834 5.79537 2.16246C5.99422 2.44 6.14731 2.75256 6.24361 3.0891C6.95551 2.67429 7.78336 2.43667 8.6667 2.43667C9.55005 2.43667 10.3779 2.67429 11.0898 3.0891C11.1861 2.75256 11.3392 2.44 11.538 2.16246ZM3.33337 1.92334C4.43794 1.92334 5.33337 2.81877 5.33337 3.92334C5.33337 5.02791 4.43794 5.92334 3.33337 5.92334C2.2288 5.92334 1.33337 5.02791 1.33337 3.92334C1.33337 2.81877 2.2288 1.92334 3.33337 1.92334ZM3.33337 2.95C2.79581 2.95 2.36004 3.38578 2.36004 3.92334C2.36004 4.4609 2.79581 4.89667 3.33337 4.89667C3.87093 4.89667 4.3067 4.4609 4.3067 3.92334C4.3067 3.38578 3.87093 2.95 3.33337 2.95ZM16 3.92334C16 2.81877 15.1046 1.92334 14 1.92334C12.8955 1.92334 12 2.81877 12 3.92334C12 5.02791 12.8955 5.92334 14 5.92334C15.1046 5.92334 16 5.02791 16 3.92334ZM13.0267 3.92334C13.0267 3.38578 13.4625 2.95 14 2.95C14.5376 2.95 14.9734 3.38578 14.9734 3.92334C14.9734 4.4609 14.5376 4.89667 14 4.89667C13.4625 4.89667 13.0267 4.4609 13.0267 3.92334ZM8.66671 10.59C9.77128 10.59 10.6667 11.4854 10.6667 12.59C10.6667 13.6946 9.77128 14.59 8.66671 14.59C7.56214 14.59 6.66671 13.6946 6.66671 12.59C6.66671 11.4854 7.56214 10.59 8.66671 10.59ZM8.6667 11.6167C8.12915 11.6167 7.69337 12.0524 7.69337 12.59C7.69337 13.1276 8.12915 13.5633 8.6667 13.5633C9.20426 13.5633 9.64004 13.1276 9.64004 12.59C9.64004 12.0524 9.20426 11.6167 8.6667 11.6167Z" fill="#FFAD54"/>
</g>
</svg>
