<svg width="17" height="16" viewBox="0 0 17 16" fill="none" xmlns="http://www.w3.org/2000/svg">
<g id="Icons/List_view">
<path id="Union" fill-rule="evenodd" clip-rule="evenodd" d="M2.51333 5.35999C2.79684 5.35999 3.02667 5.13017 3.02667 4.84666C3.02667 4.56316 2.79684 4.33333 2.51333 4.33333C2.22983 4.33333 2 4.56316 2 4.84666C2 5.13017 2.22983 5.35999 2.51333 5.35999ZM4.56668 4.33333C4.28318 4.33333 4.05335 4.56316 4.05335 4.84666C4.05335 5.13017 4.28318 5.35999 4.56668 5.35999H14.2067C14.4902 5.35999 14.72 5.13017 14.72 4.84666C14.72 4.56316 14.4902 4.33333 14.2067 4.33333H4.56668ZM4.56668 7.41333C4.28318 7.41333 4.05335 7.64316 4.05335 7.92666C4.05335 8.21017 4.28318 8.44 4.56668 8.44H14.2067C14.4902 8.44 14.72 8.21017 14.72 7.92666C14.72 7.64316 14.4902 7.41333 14.2067 7.41333H4.56668ZM4.05335 11.0067C4.05335 10.7232 4.28318 10.4933 4.56668 10.4933H14.2067C14.4902 10.4933 14.72 10.7232 14.72 11.0067C14.72 11.2902 14.4902 11.52 14.2067 11.52H4.56668C4.28318 11.52 4.05335 11.2902 4.05335 11.0067ZM3.02667 7.87335C3.02667 8.15686 2.79684 8.38669 2.51333 8.38669C2.22983 8.38669 2 8.15686 2 7.87335C2 7.58985 2.22983 7.36002 2.51333 7.36002C2.79684 7.36002 3.02667 7.58985 3.02667 7.87335ZM2.51333 11.4134C2.79684 11.4134 3.02667 11.1836 3.02667 10.9C3.02667 10.6165 2.79684 10.3867 2.51333 10.3867C2.22983 10.3867 2 10.6165 2 10.9C2 11.1836 2.22983 11.4134 2.51333 11.4134Z" fill="#87858E"/>
</g>
</svg>
