<svg width="13" height="12" viewBox="0 0 13 12" fill="none" xmlns="http://www.w3.org/2000/svg">
<g id="Icons/members_white">
<path id="Shape" fill-rule="evenodd" clip-rule="evenodd" d="M3.7 2.39999C2.37969 2.39999 1.3 3.47968 1.3 4.79999C1.3 5.59374 1.69063 6.29999 2.2875 6.73749C1.23281 7.26093 0.5 8.34531 0.5 9.59999H1.3C1.3 8.27031 2.37031 7.19999 3.7 7.19999C5.02969 7.19999 6.1 8.27031 6.1 9.59999H6.9C6.9 8.27031 7.97031 7.19999 9.3 7.19999C10.6297 7.19999 11.7 8.27031 11.7 9.59999H12.5C12.5 8.34531 11.7672 7.26093 10.7125 6.73749C11.3094 6.29999 11.7 5.59374 11.7 4.79999C11.7 3.47968 10.6203 2.39999 9.3 2.39999C7.97969 2.39999 6.9 3.47968 6.9 4.79999C6.9 5.59374 7.29063 6.29999 7.8875 6.73749C7.30469 7.02656 6.81563 7.48281 6.5 8.04999C6.18438 7.48281 5.69531 7.02656 5.1125 6.73749C5.70938 6.29999 6.1 5.59374 6.1 4.79999C6.1 3.47968 5.02031 2.39999 3.7 2.39999ZM3.7 3.19999C4.58906 3.19999 5.3 3.91093 5.3 4.79999C5.3 5.68906 4.58906 6.39999 3.7 6.39999C2.81094 6.39999 2.1 5.68906 2.1 4.79999C2.1 3.91093 2.81094 3.19999 3.7 3.19999ZM10.9 4.79999C10.9 3.91093 10.1891 3.19999 9.3 3.19999C8.41094 3.19999 7.7 3.91093 7.7 4.79999C7.7 5.68906 8.41094 6.39999 9.3 6.39999C10.1891 6.39999 10.9 5.68906 10.9 4.79999Z" fill="#87858E"/>
</g>
</svg>
