<svg width="17" height="16" viewBox="0 0 17 16" fill="none" xmlns="http://www.w3.org/2000/svg">
<g id="Icons/Members">
<path id="Shape" fill-rule="evenodd" clip-rule="evenodd" d="M4.93335 3.2C3.17294 3.2 1.73335 4.63958 1.73335 6.4C1.73335 7.45833 2.25419 8.4 3.05002 8.98333C1.64377 9.68125 0.666687 11.1271 0.666687 12.8H1.73335C1.73335 11.0271 3.16044 9.6 4.93335 9.6C6.70627 9.6 8.13335 11.0271 8.13335 12.8H9.20002C9.20002 11.0271 10.6271 9.6 12.4 9.6C14.1729 9.6 15.6 11.0271 15.6 12.8H16.6667C16.6667 11.1271 15.6896 9.68125 14.2834 8.98333C15.0792 8.4 15.6 7.45833 15.6 6.4C15.6 4.63958 14.1604 3.2 12.4 3.2C10.6396 3.2 9.20002 4.63958 9.20002 6.4C9.20002 7.45833 9.72085 8.4 10.5167 8.98333C9.7396 9.36875 9.08752 9.97708 8.66669 10.7333C8.24585 9.97708 7.59377 9.36875 6.81669 8.98333C7.61252 8.4 8.13335 7.45833 8.13335 6.4C8.13335 4.63958 6.69377 3.2 4.93335 3.2ZM4.93335 4.26667C6.11877 4.26667 7.06669 5.21458 7.06669 6.4C7.06669 7.58542 6.11877 8.53333 4.93335 8.53333C3.74794 8.53333 2.80002 7.58542 2.80002 6.4C2.80002 5.21458 3.74794 4.26667 4.93335 4.26667ZM14.5334 6.4C14.5334 5.21458 13.5854 4.26667 12.4 4.26667C11.2146 4.26667 10.2667 5.21458 10.2667 6.4C10.2667 7.58542 11.2146 8.53333 12.4 8.53333C13.5854 8.53333 14.5334 7.58542 14.5334 6.4Z" fill="#87858E"/>
</g>
</svg>
