<svg width="16" height="16" viewBox="0 0 16 16" fill="none" xmlns="http://www.w3.org/2000/svg">
<g id="Icons/Move">
<path id="Combined Shape" fill-rule="evenodd" clip-rule="evenodd" d="M2.66663 4.84659C2.66663 4.56308 2.89645 4.33325 3.17996 4.33325H12.82C13.1035 4.33325 13.3333 4.56308 13.3333 4.84659C13.3333 5.13009 13.1035 5.35992 12.82 5.35992H3.17996C2.89645 5.35992 2.66663 5.13009 2.66663 4.84659ZM2.66663 7.92659C2.66663 7.64308 2.89645 7.41325 3.17996 7.41325H12.82C13.1035 7.41325 13.3333 7.64308 13.3333 7.92659C13.3333 8.21009 13.1035 8.43992 12.82 8.43992H3.17996C2.89645 8.43992 2.66663 8.21009 2.66663 7.92659ZM3.17996 10.4932C2.89645 10.4932 2.66663 10.7231 2.66663 11.0066C2.66663 11.2901 2.89645 11.5199 3.17996 11.5199H12.82C13.1035 11.5199 13.3333 11.2901 13.3333 11.0066C13.3333 10.7231 13.1035 10.4932 12.82 10.4932H3.17996Z" fill="black"/>
</g>
</svg>
