<svg width="16" height="16" viewBox="0 0 16 16" fill="none" xmlns="http://www.w3.org/2000/svg">
<g id="Icons/options_gray">
<path id="Combined Shape" fill-rule="evenodd" clip-rule="evenodd" d="M4.33337 8C4.33337 8.55228 3.88566 9 3.33337 9C2.78109 9 2.33337 8.55228 2.33337 8C2.33337 7.44772 2.78109 7 3.33337 7C3.88566 7 4.33337 7.44772 4.33337 8ZM9.00004 8C9.00004 8.55228 8.55233 9 8.00004 9C7.44776 9 7.00004 8.55228 7.00004 8C7.00004 7.44772 7.44776 7 8.00004 7C8.55233 7 9.00004 7.44772 9.00004 8ZM12.6667 9C13.219 9 13.6667 8.55228 13.6667 8C13.6667 7.44772 13.219 7 12.6667 7C12.1144 7 11.6667 7.44772 11.6667 8C11.6667 8.55228 12.1144 9 12.6667 9Z" fill="white"/>
</g>
</svg>
