<svg width="24" height="24" viewBox="0 0 24 24" fill="none" xmlns="http://www.w3.org/2000/svg">
<g id="Icons/Plus_oval">
<path id="Shape" fill-rule="evenodd" clip-rule="evenodd" d="M12 2C6.48618 2 2 6.48618 2 12C2 17.5138 6.48618 22 12 22C17.5138 22 22 17.5138 22 12C22 6.48618 17.5138 2 12 2ZM12 3.53846C16.6815 3.53846 20.4615 7.31851 20.4615 12C20.4615 16.6815 16.6815 20.4615 12 20.4615C7.31851 20.4615 3.53846 16.6815 3.53846 12C3.53846 7.31851 7.31851 3.53846 12 3.53846ZM11.2308 11.2308V7.38462H12.7692V11.2308H16.6154V12.7692H12.7692V16.6154H11.2308V12.7692H7.38462V11.2308H11.2308Z" fill="#FFAD54"/>
</g>
</svg>
