<svg width="20" height="20" viewBox="0 0 20 20" fill="none" xmlns="http://www.w3.org/2000/svg">
<g id="Icons/Tag">
<path id="Union" fill-rule="evenodd" clip-rule="evenodd" d="M8.3621 16.26L3.74002 11.6379C3.24018 11.1381 3.23865 10.3282 3.73661 9.82644L9.77407 3.74336C10.015 3.5006 10.3429 3.36406 10.6849 3.36406H15.3526C16.0614 3.36406 16.636 3.93863 16.636 4.64739V9.3151C16.636 9.65714 16.4994 9.98502 16.2567 10.226L10.1736 16.2634C9.67187 16.7614 8.86194 16.7599 8.3621 16.26ZM15.3526 4.64739V9.3151L9.26955 15.3526L4.64747 10.7305L10.6849 4.64739L15.3526 4.64739ZM12.2628 6.79048C12.2628 6.43419 12.5534 6.1436 12.9097 6.1436C13.266 6.1436 13.5566 6.43419 13.5566 6.79048C13.5566 7.14676 13.266 7.43735 12.9097 7.43735C12.5534 7.43735 12.2628 7.14676 12.2628 6.79048Z" fill="#FFAD54"/>
</g>
</svg>
