<svg width="20" height="20" viewBox="0 0 20 20" fill="none" xmlns="http://www.w3.org/2000/svg">
<g id="Icons/tag_hubsaved">
<path id="Union" fill-rule="evenodd" clip-rule="evenodd" d="M5.21978 10.8429L9.50915 15.1323C9.78368 15.3949 10.2163 15.3949 10.4908 15.1323L14.7802 10.8429C15.0512 10.5719 15.0512 10.1324 14.7802 9.86129C14.5091 9.59022 14.0696 9.59022 13.7985 9.86129L11.0243 12.6355C10.8983 12.7615 10.6829 12.6723 10.6829 12.4941V2.34956C10.6829 1.97241 10.3771 1.66667 9.99998 1.66667C9.62283 1.66667 9.31709 1.97241 9.31709 2.34956V12.4941C9.31709 12.6723 9.10166 12.7615 8.97567 12.6355L6.20143 9.86129C5.93035 9.59022 5.49085 9.59022 5.21978 9.86129C4.9487 10.1324 4.9487 10.5719 5.21978 10.8429ZM3.854 17.6505C3.854 17.2733 4.15974 16.9676 4.53689 16.9676H15.4631C15.8402 16.9676 16.1459 17.2733 16.1459 17.6505C16.1459 18.0276 15.8402 18.3333 15.4631 18.3333H4.53689C4.15974 18.3333 3.854 18.0276 3.854 17.6505Z" fill="#AECE6B"/>
</g>
</svg>
